<svg height="198.722" viewBox="0 0 527 198.722" width="527" xmlns="http://www.w3.org/2000/svg" xmlns:xlink="http://www.w3.org/1999/xlink"><radialGradient id="a" cx=".5" cy=".5" gradientUnits="objectBoundingBox" r=".5"><stop offset="0"/><stop offset=".877" stop-opacity="0"/><stop offset="1" stop-opacity="0"/></radialGradient><g fill="#28729a" opacity=".465" transform="translate(74.539)"><path d="m163.891 647.749v-6.83l-17.388-11.8h-12.42l-5.814 4.362-7.848-5.233v-5.339h-6.21v-6.83l-6.21 6.21.932.466-.378.568 18.077 12.052v5.545l-6.21 6.21v6.21l6.521 6.21 6.521 6.21 5.589 6.21v31.05l6.521 18.63 12.731 6.21-6.831-6.21v-12.42l6.21-6.21 18.63-24.84v-12.42l6.21-6.21v-6.21l-11.178-5.59z" transform="translate(-59.562 -529.138)"/><path d="m111.849 624.623 13.041-5.9h12.42l29.808-25.46v-5.59h6.21v6.21h6.21v-6.83l-5.589-12.265-11.8-6.056-6.21 12.731h-6.21l-6.831-6.521 11.8-6.519v-5.59h-12.42v-6.21h-11.178l-6.21 6.21h-12.42l-12.42-6.443-18.63 5.978-12.42 6.365 6.21 6.521h23.6v11.8l-6.21 12.42v12.42l12.42 18.63 12.42 6.21v-6.21z" transform="translate(-69 -543.583)"/><path d="m65.827 76.382h2.484v4.968h-2.484z"/><path d="m80.731 87.561h6.21v2.484h-6.21z"/><path d="m0 0h2.484v13.886h-2.484z" transform="matrix(.4472128 -.89442759 .89442759 .4472128 60.381 83.006)"/><path d="m202 568.579v13.661h6.417z" transform="translate(-36.812 -540.633)"/><path d="m340.9 653.2-18.213-6.072-12.11-12.108-2.634 2.634 12.42 12.42.728.45 18.63 6.21z" transform="translate(-11.174 -524.554)"/><path d="m319 636.578 12.42 12.422 6.21-12.42h-18.63z" transform="translate(-8.497 -524.177)"/><path d="m0 0h3.726v13.886h-3.726z" transform="matrix(.89442759 -.4472128 .4472128 .89442759 327.467 93.984)"/><path d="m345.627 598.378v-11.8h-2.484v11.3l-5.867 6.16 1.8 1.713 6.21-6.52z" transform="translate(-4.074 -536.277)"/><path d="m347.51 640.2-2.666 2.6 8.826 8.923 2.546 2.609h12.42l-12.42-12.732-3.714 3.714z" transform="translate(-2.242 -523.301)"/><path d="m366.47 662.289v-6.21l-5.589 6.519-5.589-5.9h-6.21l-13.041 5.9-13.041 5.902v18.63l18.63-6.21 6.21 6.21v6.83h13.66l11.8-18.941z" transform="translate(-7.529 -519.457)"/><path d="m380.472 681.577v4.607l-17.819 12.175 2.1 3.076 18.63-12.729.811-1.538v-5.59z" transform="translate(2.068 -513.286)"/><path d="m208.646 552.6-25-6.519-25.151 6.21 11.8 6.21v6.21l-5.589 6.365 6.831 6.364 18.63-12.11h6.21z" transform="translate(-47.34 -546.079)"/><path d="m149.042 24.218h7.452v3.726h-7.452z"/><path d="m148.968 568.378 13.041-5.9-11.8-5.9h-6.209l4.968 5.59z" transform="translate(-50.849 -543.538)"/><path d="m253 674.709 6.21-18.63-6.21 6.21z" transform="translate(-24.47 -519.457)"/><path d="m200.968 578.787v-6.21l-4.968 6.21z" transform="translate(-38.264 -539.665)"/><path d="m381.754 564.334h-18.63l-18.63-6.365-12.42 6.055-6.21-5.9h-12.42l-12.42-6.21-12.42 6.21h-12.42l-6.21 6.21h-6.83l1.5-1.5-4.992-4.99 10.879-5.44-1.11-2.222-12.421 6.212-.323 1.988 5.952 5.952h-36.129l-7.452 5.59v6.83h7.452l6.21-6.365 6.21 6.055-6.21 6.521h-12.42l-13.662 11.8v6.83h-6.21v6.21h7.452l6.21-6.521 6.055-6.364 12.265 12.265-6.521-12.42 11.8 12.42v-5.59h6.21v-6.21h13.662l6.21 6.21h-19.87v6.21h12.42v5.59l-4.869 6.693-.1-.1-12.42-5.978h-13.662v-6.21h-11.178l-12.42 5.9-6.831 6.056-6.831 12.269v12.42l13.662 13.04h23.6v30.431l7.452 25.46h12.42l4.968-6.83v-6.21l6.21-6.21v-6.21l6.21-6.21v-12.42l19.872-24.22h-12.42l-.835-.876 18.844-11.855-5.589-5.9h-7.452v-6.83l13.662 6.83h6.21l12.4 12.11 6.191 12.111 6.17-18.63 6.133-6.21 24.685 24.84 5.9-6.21-6.831-6.21v-6.21l12.42-6.21v-6.21l-6.21-12.42v-6.21l12.42 12.42v-12.42l6.831-6.055-18.009-12.266 6.21-5.9h12.42l4.968-6.83v12.42l6.21 6.21v-12.42l6.831-5.9zm-113.023 79.428-4.968-5.218-6.21-12.574-5.969-5.746h5.969l11.178 18.01zm0-35.958v-13.04l7.452 13.04z" transform="translate(-40.201 -545.085)"/></g><ellipse cx="263.5" cy="43.5" fill="url(#a)" opacity=".461" rx="263.5" ry="43.5" transform="translate(0 42.643)"/><g fill="none"><path d="m683.705 860.581-6.936-3.7 4.112 11.381z" transform="translate(-225.454 -756.99)"/><path d="m401.079 707.753 28.651 15.276v-2.317h4.9v-13.712h10.121v13.712h7.182v9.141h-7.182v1.461l19.642 10.442 3.717 10.112 5.6 15.446 5.688-15.446.656-1.792 10.982 5.857-1.467-4.065-5.082-13.951-4.429 12.155-15.6-8.264-7.825-21.423h12.157l4.983 13.752 4.983-13.752h11.46l4.983 13.7 4.983-13.7h12.107l-11.46 31.535-2.855 7.685 20.89 11.057h-117.864" transform="translate(-39.717 -656.042)"/><path d="m493.9 762.922v18.878c0 3.265.124 7.959 1.553 11.836s4.3 6.939 10.317 6.939a20.513 20.513 0 0 0 3.941-.306c.51-.1 1.166-.306 1.492-.408v-10.1c-.327.1-.785.1-1.192.2a19.834 19.834 0 0 1 -2.542.2c-1.633 0-2.528-1.531-2.936-3.367a28.607 28.607 0 0 1 -.513-5.816v-16.596l-15.02-8.282v6.824z" transform="translate(-98.987 -689.111)"/><path d="m370.401 64.81h11.432v44.912h-11.432z"/></g><path d="m497.969 761.247-2.825 7.71-4.112-11.367-10.98-5.85-.653 1.8-5.68 15.447-5.581-15.445-3.75-10.112-19.641-10.442v16.602a28.629 28.629 0 0 0 .524 5.816c.407 1.837 1.281 3.367 2.914 3.367a19.77 19.77 0 0 0 2.535-.2c.408-.1.882-.1 1.209-.2v10.1c-.326.1-.976.306-1.486.408a20.7 20.7 0 0 1 -3.957.306c-6.02 0-8.889-3.062-10.317-6.939s-1.542-8.572-1.542-11.836v-18.888h-4.9v-6.824l-28.727-15.22v62.853h117.859zm-76.4 6.516h-11.427v-45.707h11.427z" fill="#fff" transform="translate(-39.717 -657.712)"/><path d="m504.018 729.853h7.182v-9.141h-7.183v-13.712h-10.117v13.712h-4.9v2.317l15.018 8.284z" fill="#fff" transform="translate(-98.987 -656.042)"/><path d="m615.588 779.536 11.46-31.536h-12.107l-4.983 13.7-4.982-13.7h-11.46l-4.983 13.752-4.982-13.752h-12.157l7.825 21.424 15.6 8.294 4.429-12.17 5.082 13.943 1.468 4.061 6.937 3.728z" fill="#fff" transform="translate(-154.481 -683.657)"/><path d="m99.351 20.568v25.81h6.694v-25.81zm18.806 25.81v-15.788l12.343 15.788h6.694v-25.81h-6.694v15.788l-12.343-15.788h-6.694v25.81zm39.7-20.121v-5.689h-17.683v5.688h5.495v20.122h6.694v-20.121zm17.643-5.689h-14.663v25.81h14.663v-5.688h-7.971v-4.45h7.546v-5.688h-7.546v-4.3h7.971zm4.256 0v25.81h6.694v-9.906l6.423 9.906h8.327l-8.087-10.564a7.23 7.23 0 0 0 3.56-1.78 7.448 7.448 0 0 0 2.051-5.379 8.5 8.5 0 0 0 -2.206-5.8 8.339 8.339 0 0 0 -6.307-2.283zm6.694 5.185h1.277a4.544 4.544 0 0 1 3.212 1.006 3.043 3.043 0 0 1 .89 2.167 3.213 3.213 0 0 1 -.851 2.167 5.03 5.03 0 0 1 -3.25 1.045h-1.277zm24.262 20.624v-15.787l12.344 15.788h6.694v-25.81h-6.694v15.788l-12.341-15.788h-6.694v25.81zm41.79 0h7.159l-9.712-25.81h-7.313l-9.906 25.81h7.081l1.741-4.334h9.364zm-9.093-9.442 2.825-8.358 2.9 8.358zm33.316-10.68v-5.687h-17.68v5.688h5.495v20.122h6.694v-20.121zm2.98-5.688v25.81h6.695v-25.809zm39.43 12.924a13.351 13.351 0 0 0 -4.063-9.674 15.433 15.433 0 0 0 -20.354 0 13.5 13.5 0 0 0 0 19.309 15.433 15.433 0 0 0 20.354 0 13.393 13.393 0 0 0 4.066-9.633zm-14.24-7a7.726 7.726 0 0 1 5.185 2.051 6.964 6.964 0 0 1 2.09 4.953 7.01 7.01 0 0 1 -7.275 6.965 7.322 7.322 0 0 1 -5.224-2.051 6.56 6.56 0 0 1 -2.051-4.8 7.075 7.075 0 0 1 2.051-5.069 7.434 7.434 0 0 1 5.229-2.051zm25.19 19.889v-15.79l12.344 15.788h6.694v-25.81h-6.694v15.788l-12.34-15.788h-6.694v25.81zm41.79 0h7.159l-9.712-25.81h-7.313l-9.906 25.81h7.081l1.741-4.334h9.364zm-9.093-9.442 2.825-8.358 2.9 8.358zm19.231-16.368v25.81h14.747v-5.69h-8.049v-20.122zm-268.987 43.279v-5.171h-16.076v5.171h5v18.292h6.086v-18.292zm8.794-5.171h-6.086v23.463h6.086v-9.5h8.794v9.5h6.121v-23.463h-6.121v8.759h-8.794zm19.84 0v23.463h6.086v-9.005l5.839 9.005h7.563l-7.352-9.6a6.573 6.573 0 0 0 3.236-1.618 6.771 6.771 0 0 0 1.864-4.89 7.723 7.723 0 0 0 -2.005-5.277 7.581 7.581 0 0 0 -5.734-2.075zm6.086 4.714h1.161a4.131 4.131 0 0 1 2.92.915 2.767 2.767 0 0 1 .809 1.97 2.921 2.921 0 0 1 -.774 1.97 4.573 4.573 0 0 1 -2.955.95h-1.161zm15.97-4.714v23.463h6.084v-23.463zm11.01 0v23.463h13.4v-5.171h-7.317v-18.292zm16.533 0v23.463h13.4v-5.171h-7.317v-18.292zm29.865 0h-13.331v23.463h13.332v-5.171h-7.247v-4.045h6.86v-5.171h-6.86v-3.9h7.247zm3.869 0v23.463h6.086v-9.005l5.839 9.005h7.563l-7.352-9.6a6.573 6.573 0 0 0 3.236-1.618 6.771 6.771 0 0 0 1.864-4.89 7.723 7.723 0 0 0 -2.005-5.277 7.581 7.581 0 0 0 -5.734-2.075zm6.086 4.714h1.161a4.131 4.131 0 0 1 2.92.915 2.767 2.767 0 0 1 .809 1.97 2.921 2.921 0 0 1 -.774 1.97 4.573 4.573 0 0 1 -2.955.95h-1.161zm21.7-4.714 7 23.463h6.191l4.5-13.578 4.256 13.578h6.226l7.493-23.463h-6.367l-4.423 15.162-4.608-15.161h-4.854l-4.96 15.161-4.081-15.161zm38.132 0v23.463h6.089v-9.005l5.839 9.005h7.563l-7.352-9.6a6.573 6.573 0 0 0 3.236-1.618 6.771 6.771 0 0 0 1.864-4.89 7.723 7.723 0 0 0 -2.005-5.277 7.581 7.581 0 0 0 -5.734-2.075zm6.089 4.714h1.161a4.131 4.131 0 0 1 2.92.915 2.767 2.767 0 0 1 .809 1.97 2.922 2.922 0 0 1 -.774 1.97 4.573 4.573 0 0 1 -2.955.95h-1.161zm15.97-4.714v23.463h6.086v-23.463zm24.87 5.171v-5.171h-16.072v5.171h5v18.292h6.086v-18.292zm16.041-5.171h-13.329v23.463h13.332v-5.171h-7.247v-4.045h6.86v-5.171h-6.86v-3.9h7.247zm3.869 0v23.463h6.086v-9.005l5.839 9.005h7.563l-7.352-9.6a6.573 6.573 0 0 0 3.236-1.618 6.771 6.771 0 0 0 1.864-4.89 7.723 7.723 0 0 0 -2.005-5.277 7.581 7.581 0 0 0 -5.734-2.075zm6.086 4.714h1.164a4.131 4.131 0 0 1 2.92.915 2.767 2.767 0 0 1 .809 1.97 2.921 2.921 0 0 1 -.774 1.97 4.573 4.573 0 0 1 -2.955.953h-1.161zm14.915 16.639a16.381 16.381 0 0 0 3.553 1.864 12.541 12.541 0 0 0 4.608.774c2.5 0 4.925-.387 6.93-2.392a7.949 7.949 0 0 0 2.216-5.91 5.54 5.54 0 0 0 -1.513-4.186 8.963 8.963 0 0 0 -4.257-2.322l-1.864-.563a3.852 3.852 0 0 1 -2.04-1.055 1.57 1.57 0 0 1 -.316-1.055 1.736 1.736 0 0 1 .6-1.266 2.922 2.922 0 0 1 2.005-.7 6.19 6.19 0 0 1 4.01 1.583l2.427-4.749a16.481 16.481 0 0 0 -7.246-1.9 8.272 8.272 0 0 0 -6.015 2.216 7.671 7.671 0 0 0 -2.149 5.66 5.9 5.9 0 0 0 1.337 4.151 7.663 7.663 0 0 0 3.377 1.9l1.583.492a8.449 8.449 0 0 1 3.025 1.231 1.833 1.833 0 0 1 .668 1.407 2.1 2.1 0 0 1 -.6 1.477 3.088 3.088 0 0 1 -2.357.809 8.22 8.22 0 0 1 -5.382-2.392z" fill="#fff" transform="translate(-50.129 31.952)"/></svg>